[Header]
FileType HTR
DataType HTRS
FileVersion 1
NumSegments 64
NumFrames 4
DataFrameRate 24
EulerRotationOrder ZYX
CalibrationUnits mm
RotationUnits Degrees
GlobalAxisofGravity Y
BoneLengthAxis Y
ScaleFactor 1.0
[SegmentNames&Hierarchy]
Hips	GLOBAL
Spine	Hips
Spine1	Spine
Spine2	Spine1
Neck	Spine2
Head	Neck
LeftEye	Head
RightEye	Head
LeftShoulder	Spine2
LeftArm	LeftShoulder
LeftForeArm	LeftArm
LeftHand	LeftForeArm
LeftHandThumb1	LeftHand
LeftHandThumb2	LeftHandThumb1
LeftHandThumb3	LeftHandThumb2
LeftHandThumb4	LeftHandThumb3
LeftHandIndex1	LeftHand
LeftHandIndex2	LeftHandIndex1
LeftHandIndex3	LeftHandIndex2
LeftHandIndex4	LeftHandIndex3
LeftHandMiddle1	LeftHand
LeftHandMiddle2	LeftHandMiddle1
LeftHandMiddle3	LeftHandMiddle2
LeftHandMiddle4	LeftHandMiddle3
LeftHandRing1	LeftHand
LeftHandRing2	LeftHandRing1
LeftHandRing3	LeftHandRing2
LeftHandRing4	LeftHandRing3
LeftHandPinky1	LeftHand
LeftHandPinky2	LeftHandPinky1
LeftHandPinky3	LeftHandPinky2
LeftHandPinky4	LeftHandPinky3
RightShoulder	Spine2
RightArm	RightShoulder
RightForeArm	RightArm
RightHand	RightForeArm
RightHandPinky1	RightHand
RightHandPinky2	RightHandPinky1
RightHandPinky3	RightHandPinky2
RightHandPinky4	RightHandPinky3
RightHandRing1	RightHand
RightHandRing2	RightHandRing1
RightHandRing3	RightHandRing2
RightHandRing4	RightHandRing3
RightHandMiddle1	RightHand
RightHandMiddle2	RightHandMiddle1
RightHandMiddle3	RightHandMiddle2
RightHandMiddle4	RightHandMiddle3
RightHandIndex1	RightHand
RightHandIndex2	RightHandIndex1
RightHandIndex3	RightHandIndex2
RightHandIndex4	RightHandIndex3
RightHandThumb1	RightHand
RightHandThumb2	RightHandThumb1
RightHandThumb3	RightHandThumb2
RightHandThumb4	RightHandThumb3
LeftUpLeg	Hips
LeftLeg	LeftUpLeg
LeftFoot	LeftLeg
LeftToeBase	LeftFoot
RightUpLeg	Hips
RightLeg	RightUpLeg
RightFoot	RightLeg
RightToeBase	RightFoot
[BasePosition]
Hips	0	0	0	0	0	0	1
Spine	0	0	0	0	0	0	1
Spine1	0	0	0	0	0	0	1
Spine2	0	0	0	0	0	0	1
Neck	0	0	0	0	0	0	1
Head	0	0	0	0	0	0	1
LeftEye	0	0	0	0	0	0	1
RightEye	0	0	0	0	0	0	1
LeftShoulder	0	0	0	0	0	0	1
LeftArm	0	0	0	0	0	0	1
LeftForeArm	0	0	0	0	0	0	1
LeftHand	0	0	0	0	0	0	1
LeftHandThumb1	0	0	0	0	0	0	1
LeftHandThumb2	0	0	0	0	0	0	1
LeftHandThumb3	0	0	0	0	0	0	1
LeftHandThumb4	0	0	0	0	0	0	1
LeftHandIndex1	0	0	0	0	0	0	1
LeftHandIndex2	0	0	0	0	0	0	1
LeftHandIndex3	0	0	0	0	0	0	1
LeftHandIndex4	0	0	0	0	0	0	1
LeftHandMiddle1	0	0	0	0	0	0	1
LeftHandMiddle2	0	0	0	0	0	0	1
LeftHandMiddle3	0	0	0	0	0	0	1
LeftHandMiddle4	0	0	0	0	0	0	1
LeftHandRing1	0	0	0	0	0	0	1
LeftHandRing2	0	0	0	0	0	0	1
LeftHandRing3	0	0	0	0	0	0	1
LeftHandRing4	0	0	0	0	0	0	1
LeftHandPinky1	0	0	0	0	0	0	1
LeftHandPinky2	0	0	0	0	0	0	1
LeftHandPinky3	0	0	0	0	0	0	1
LeftHandPinky4	0	0	0	0	0	0	1
RightShoulder	0	0	0	0	0	0	1
RightArm	0	0	0	0	0	0	1
RightForeArm	0	0	0	0	0	0	1
RightHand	0	0	0	0	0	0	1
RightHandPinky1	0	0	0	0	0	0	1
RightHandPinky2	0	0	0	0	0	0	1
RightHandPinky3	0	0	0	0	0	0	1
RightHandPinky4	0	0	0	0	0	0	1
RightHandRing1	0	0	0	0	0	0	1
RightHandRing2	0	0	0	0	0	0	1
RightHandRing3	0	0	0	0	0	0	1
RightHandRing4	0	0	0	0	0	0	1
RightHandMiddle1	0	0	0	0	0	0	1
RightHandMiddle2	0	0	0	0	0	0	1
RightHandMiddle3	0	0	0	0	0	0	1
RightHandMiddle4	0	0	0	0	0	0	1
RightHandIndex1	0	0	0	0	0	0	1
RightHandIndex2	0	0	0	0	0	0	1
RightHandIndex3	0	0	0	0	0	0	1
RightHandIndex4	0	0	0	0	0	0	1
RightHandThumb1	0	0	0	0	0	0	1
RightHandThumb2	0	0	0	0	0	0	1
RightHandThumb3	0	0	0	0	0	0	1
RightHandThumb4	0	0	0	0	0	0	1
LeftUpLeg	0	0	0	0	0	0	1
LeftLeg	0	0	0	0	0	0	1
LeftFoot	0	0	0	0	0	0	1
LeftToeBase	0	0	0	0	0	0	1
RightUpLeg	0	0	0	0	0	0	1
RightLeg	0	0	0	0	0	0	1
RightFoot	0	0	0	0	0	0	1
RightToeBase	0	0	0	0	0	0	1
[Hips]
130	2.859216213	994.5356445	122.0989685	-0.7715680003	-11.28500748	5.208496094	1.0
131	14.25069618	972.2689209	107.9580002	-2.179487944	-6.058336735	9.14466095	1.0
132	21.46162987	957.359375	86.62202454	-1.316274405	3.263319969	9.550305367	1.0
133	28.21500397	941.3479614	68.23054504	2.66522789	10.25257587	8.818727493	1.0
[Spine]
130	0	101.8159943	1.315000057	2.314540148	-1.926728249	5.211450577	1.0
131	0	101.8159943	1.315000057	4.771976471	-3.638794422	1.635353446	1.0
132	0	101.8159943	1.315000057	7.128886223	-5.976540089	1.182710171	1.0
133	0	101.8159943	1.315000057	7.229409695	-6.917684078	2.084912539	1.0
[Spine1]
130	0	100.8349991	-10.00800037	1.626377225	-0.1191047803	2.066011667	1.0
131	0	100.8349991	-10.00800037	2.975312948	-0.4503522217	1.359783053	1.0
132	0	100.8349991	-10.00800037	3.783714771	-0.8090776801	1.596295595	1.0
133	0	100.8349991	-10.00800037	3.604291916	-0.9122511148	2.063348055	1.0
[Spine2]
130	0	91	-13.73399925	1.623379946	-0.09838354588	2.059102297	1.0
131	0	91	-13.73399925	2.977500439	-0.3955912888	1.332676053	1.0
132	0	91	-13.73399925	3.803792477	-0.7055884004	1.546904922	1.0
133	0	91	-13.73399925	3.633876324	-0.7918271422	2.008308887	1.0
[Neck]
130	0	166.7169952	-25.16200066	9.187870979	3.601367712	-2.398762703	1.0
131	0	166.7169952	-25.16200066	4.522047997	3.222489595	-3.259516001	1.0
132	0	166.7169952	-25.16200066	0.1944207549	2.224675417	-5.06735754	1.0
133	0	166.7169952	-25.16200066	-2.673113823	0.7926054001	-4.35174942	1.0
[Head]
130	0	96.17900085	16.84999847	-11.33530617	17.32012177	-14.12707043	1.0
131	0	96.17900085	16.84999847	-15.26748753	13.05335236	-12.39240456	1.0
132	0	96.17900085	16.84999847	-18.78627777	6.772273064	-10.80270481	1.0
133	0	96.17900085	16.84999847	-21.6897831	1.984589696	-10.40427399	1.0
[LeftEye]
130	30.6760006	64.09500122	92.83599854	0	0	0	1.0
131	30.6760006	64.09500122	92.83599854	0	0	0	1.0
132	30.6760006	64.09500122	92.83599854	0	0	0	1.0
133	30.6760006	64.09500122	92.83599854	0	0	0	1.0
[RightEye]
130	-30.6760006	64.09500122	92.83499908	0	0	0	1.0
131	-30.6760006	64.09500122	92.83499908	0	0	0	1.0
132	-30.6760006	64.09500122	92.83499908	0	0	0	1.0
133	-30.6760006	64.09500122	92.83499908	0	0	0	1.0
[LeftShoulder]
130	45.70400238	109.4599991	-26.28000069	3.4024086	-21.56400681	-2.426671743	1.0
131	45.70400238	109.4599991	-26.28000069	3.279931307	-22.67865372	-1.879575968	1.0
132	45.70400238	109.4599991	-26.28000069	3.175228119	-25.94434547	-1.764505029	1.0
133	45.70400238	109.4599991	-26.28000069	2.550895452	-28.26112938	0.5591037869	1.0
[LeftArm]
130	105.923996	-5.24600029	-22.32099915	10.91432762	-29.80499268	-7.766736507	1.0
131	105.923996	-5.24600029	-22.32099915	8.092172623	-29.26247406	-3.909683704	1.0
132	105.923996	-5.24600029	-22.32099915	1.034657359	-29.83029556	-1.13160944	1.0
133	105.923996	-5.24600029	-22.32099915	-7.555588722	-31.48088455	1.222229004	1.0
[LeftForeArm]
130	278.414978	-0.0009999999311	0	-6.103515625e-05	-94.21324921	-7.629394531e-05	1.0
131	278.414978	-0.0009999999311	0	-7.629387983e-05	-95.68968201	-0.0001373292325	1.0
132	278.414978	-0.0009999999311	0	-3.051777821e-05	-97.54843903	-0.0001525877597	1.0
133	278.414978	-0.0009999999311	0	3.051757813e-05	-101.0406876	-0.0002136230469	1.0
[LeftHand]
130	283.2879944	0	0	8.344367027	-20.7932415	-13.49972725	1.0
131	283.2879944	0	0	8.831270218	-20.7883091	-15.52106953	1.0
132	283.2879944	0	0	9.617577553	-22.75887108	-16.51851082	1.0
133	283.2879944	0	0	10.57128811	-24.84159279	-17.05784798	1.0
[LeftHandThumb1]
130	24.6609993	-15.75	26.8239994	-1.441470385	-8.319267273	8.653959274	1.0
131	24.6609993	-15.75	26.8239994	-1.441469431	-8.319268227	8.653964996	1.0
132	24.6609993	-15.75	26.8239994	-1.441470742	-8.319270134	8.653972626	1.0
133	24.6609993	-15.75	26.8239994	-1.44146955	-8.319268227	8.653962135	1.0
[LeftHandThumb2]
130	32.29800034	-18.64699936	18.64699936	-0.9986180663	48.03616333	-30.10183525	1.0
131	32.29800034	-18.64699936	18.64699936	-0.9986063838	48.03615952	-30.10183334	1.0
132	32.29800034	-18.64699936	18.64699936	-0.9986109138	48.03615952	-30.10184479	1.0
133	32.29800034	-18.64699936	18.64699936	-0.9986052513	48.0361557	-30.10181427	1.0
[LeftHandThumb3]
130	26.52600098	-15.31499958	15.31499958	7.522164345	50.02408218	24.3875618	1.0
131	26.52600098	-15.31499958	15.31499958	7.522167206	50.02407837	24.38755608	1.0
132	26.52600098	-15.31499958	15.31499958	7.522162914	50.02407455	24.38756371	1.0
133	26.52600098	-15.31499958	15.31499958	7.52218008	50.02410507	24.38755226	1.0
[LeftHandThumb4]
130	19.54599953	-11.28499985	11.28499985	0	0	0	1.0
131	19.54599953	-11.28499985	11.28499985	0	0	0	1.0
132	19.54599953	-11.28499985	11.28499985	0	0	0	1.0
133	19.54599953	-11.28499985	11.28499985	0	0	0	1.0
[LeftHandIndex1]
130	91.09299469	-5.170999527	22.60099792	-1.706924081	9.272182465	-79.12527466	1.0
131	91.09299469	-5.170999527	22.60099792	-1.706926703	9.272186279	-79.12528229	1.0
132	91.09299469	-5.170999527	22.60099792	-1.706925154	9.272184372	-79.12526703	1.0
133	91.09299469	-5.170999527	22.60099792	-1.706928015	9.272185326	-79.12528229	1.0
[LeftHandIndex2]
130	36.76399994	0	0	-5.08423996	5.778057575	-82.67964935	1.0
131	36.76399994	0	0	-5.084238529	5.778054714	-82.67964172	1.0
132	36.76399994	0	0	-5.084237099	5.778054714	-82.67964172	1.0
133	36.76399994	0	0	-5.08423996	5.778056622	-82.67962646	1.0
[LeftHandIndex3]
130	28.83100128	0	0	-6.44967556	5.79175663	-96.16448212	1.0
131	28.83100128	0	0	-6.449679375	5.791758537	-96.16447449	1.0
132	28.83100128	0	0	-6.449682713	5.791761398	-96.16448212	1.0
133	28.83100128	0	0	-6.449678898	5.791760921	-96.16449738	1.0
[LeftHandIndex4]
130	23.92700005	0	0	0	0	0	1.0
131	23.92700005	0	0	0	0	0	1.0
132	23.92700005	0	0	0	0	0	1.0
133	23.92700005	0	0	0	0	0	1.0
[LeftHandMiddle1]
130	95.33399963	0	0	-6.494761467	5.273257256	-74.30395508	1.0
131	95.33399963	0	0	-6.494757175	5.273262024	-74.30393982	1.0
132	95.33399963	0	0	-6.494755745	5.273263454	-74.30393219	1.0
133	95.33399963	0	0	-6.494757175	5.273261547	-74.30393219	1.0
[LeftHandMiddle2]
130	36.98199844	0	0	-7.583498001	5.554390907	-107.5965958	1.0
131	36.98199844	0	0	-7.58349514	5.554387569	-107.5965958	1.0
132	36.98199844	0	0	-7.583497047	5.554385185	-107.5966339	1.0
133	36.98199844	0	0	-7.583496094	5.554389954	-107.5965958	1.0
[LeftHandMiddle3]
130	29.50900078	0	0	-4.044085026	5.547125816	-72.16719818	1.0
131	29.50900078	0	0	-4.044083595	5.547124863	-72.16720581	1.0
132	29.50900078	0	0	-4.044086456	5.547127724	-72.16721344	1.0
133	29.50900078	0	0	-4.044086456	5.54712677	-72.16720581	1.0
[LeftHandMiddle4]
130	28.3390007	0	0	0	0	0	1.0
131	28.3390007	0	0	0	0	0	1.0
132	28.3390007	0	0	0	0	0	1.0
133	28.3390007	0	0	0	0	0	1.0
[LeftHandRing1]
130	91.04499817	-0.4390000105	-18.65100098	-7.093589306	2.50795269	-79.76668549	1.0
131	91.04499817	-0.4390000105	-18.65100098	-7.093592167	2.507953644	-79.76667786	1.0
132	91.04499817	-0.4390000105	-18.65100098	-7.093588352	2.507953882	-79.76668549	1.0
133	91.04499817	-0.4390000105	-18.65100098	-7.093591213	2.50795126	-79.76667023	1.0
[LeftHandRing2]
130	31.54000092	0	0	-6.249156952	5.809819221	-94.18068695	1.0
131	31.54000092	0	0	-6.249157906	5.809817791	-94.18071747	1.0
132	31.54000092	0	0	-6.249154091	5.809818745	-94.18068695	1.0
133	31.54000092	0	0	-6.249157906	5.809818745	-94.18070221	1.0
[LeftHandRing3]
130	29.37700081	0	0	-2.898618937	5.038873196	-59.79805756	1.0
131	29.37700081	0	0	-2.898619175	5.038873672	-59.798069	1.0
132	29.37700081	0	0	-2.898618221	5.038874626	-59.79807281	1.0
133	29.37700081	0	0	-2.898617506	5.038873672	-59.79807281	1.0
[LeftHandRing4]
130	26.47500038	0	0	0	0	0	1.0
131	26.47500038	0	0	0	0	0	1.0
132	26.47500038	0	0	0	0	0	1.0
133	26.47500038	0	0	0	0	0	1.0
[LeftHandPinky1]
130	80.77799988	-4.887000084	-38.06099701	-15.74281597	5.236326218	-84.9630661	1.0
131	80.77799988	-4.887000084	-38.06099701	-15.74280834	5.236333847	-84.96305084	1.0
132	80.77799988	-4.887000084	-38.06099701	-15.74281502	5.236326694	-84.96305847	1.0
133	80.77799988	-4.887000084	-38.06099701	-15.74281406	5.236330509	-84.96305084	1.0
[LeftHandPinky2]
130	36	0	0	-2.465524197	4.761472225	-54.73120117	1.0
131	36	0	0	-2.465526581	4.761472702	-54.73122025	1.0
132	36	0	0	-2.465524197	4.761472702	-54.73118591	1.0
133	36	0	0	-2.46552515	4.761473656	-54.73118973	1.0
[LeftHandPinky3]
130	21.14200211	0	0	-4.929652214	5.756196022	-81.14133453	1.0
131	21.14200211	0	0	-4.929653168	5.756196976	-81.14133453	1.0
132	21.14200211	0	0	-4.929653168	5.756194592	-81.14134216	1.0
133	21.14200211	0	0	-4.929654121	5.756195068	-81.14134216	1.0
[LeftHandPinky4]
130	19.75699997	0	0	0	0	0	1.0
131	19.75699997	0	0	0	0	0	1.0
132	19.75699997	0	0	0	0	0	1.0
133	19.75699997	0	0	0	0	0	1.0
[RightShoulder]
130	-45.70000076	109.4620056	-26.28000069	-18.17947578	10.80469227	-19.04199409	1.0
131	-45.70000076	109.4620056	-26.28000069	-18.36264992	16.45294952	-18.71103477	1.0
132	-45.70000076	109.4620056	-26.28000069	-18.03011894	17.55348587	-16.14590454	1.0
133	-45.70000076	109.4620056	-26.28000069	-16.96983719	12.42661572	-14.58919048	1.0
[RightArm]
130	-105.9280014	-5.248000145	-22.32099915	12.98968601	28.80360794	-35.40118408	1.0
131	-105.9280014	-5.248000145	-22.32099915	3.56978178	6.488875389	-38.19404984	1.0
132	-105.9280014	-5.248000145	-22.32099915	-23.24948692	-11.96783829	-33.32083511	1.0
133	-105.9280014	-5.248000145	-22.32099915	-57.32213974	-18.10085678	-28.00566864	1.0
[RightForeArm]
130	-278.414978	0	0	4.398112878e-07	52.90514755	-7.612392778e-07	1.0
131	-278.414978	0	0	-0.0001105505216	86.94117737	-0.0001022644501	1.0
132	-278.414978	0	0	1.525861353e-05	110.4417038	1.525859807e-05	1.0
133	-278.414978	0	0	-1.525878906e-05	115.0974197	0	1.0
[RightHand]
130	-283.2879944	0	0.0009999999311	-47.43991852	-7.738315105	-29.54224777	1.0
131	-283.2879944	0	0.0009999999311	-31.90318298	-9.389308929	-29.91612434	1.0
132	-283.2879944	0	0.0009999999311	-20.60445595	-5.212710381	-18.10218239	1.0
133	-283.2879944	0	0.0009999999311	-23.25039482	-4.068711281	-20.69072342	1.0
[RightHandPinky1]
130	-80.76699829	-4.885000229	-38.06000137	-15.1822319	-1.629496813	97.5863266	1.0
131	-80.76699829	-4.885000229	-38.06000137	-15.18223953	-1.629487514	97.58630371	1.0
132	-80.76699829	-4.885000229	-38.06000137	-15.18224335	-1.629490614	97.58631897	1.0
133	-80.76699829	-4.885000229	-38.06000137	-15.18224335	-1.629496574	97.5863266	1.0
[RightHandPinky2]
130	-36	0	0.0009999999311	-1.749821186	-3.626905441	51.51879883	1.0
131	-36	0	0.0009999999311	-1.749822855	-3.626903296	51.51878357	1.0
132	-36	0	0.0009999999311	-1.749823809	-3.626911879	51.51879883	1.0
133	-36	0	0.0009999999311	-1.749814868	-3.626903772	51.51878357	1.0
[RightHandPinky3]
130	-21.14200211	0	0	-1.867228866	-3.717083931	53.33225632	1.0
131	-21.14200211	0	0	-1.867221832	-3.717092276	53.33225632	1.0
132	-21.14200211	0	0	-1.867224455	-3.717078209	53.33226013	1.0
133	-21.14200211	0	0	-1.867229223	-3.71708107	53.33226776	1.0
[RightHandPinky4]
130	-19.75699997	0	0	0	0	0	1.0
131	-19.75699997	0	0	0	0	0	1.0
132	-19.75699997	0	0	0	0	0	1.0
133	-19.75699997	0	0	0	0	0	1.0
[RightHandRing1]
130	-91.03599548	-0.4390000105	-18.65100098	-7.06502533	-0.7974053621	91.9100647	1.0
131	-91.03599548	-0.4390000105	-18.65100098	-7.065029144	-0.797406435	91.91007233	1.0
132	-91.03599548	-0.4390000105	-18.65100098	-7.065037251	-0.7973976731	91.91007996	1.0
133	-91.03599548	-0.4390000105	-18.65100098	-7.065040112	-0.7974045277	91.91007233	1.0
[RightHandRing2]
130	-31.54000092	0	0	-4.3277421	-4.62062645	86.24687958	1.0
131	-31.54000092	0	0	-4.327745438	-4.620641708	86.24687958	1.0
132	-31.54000092	0	0	-4.327738285	-4.620633602	86.24688721	1.0
133	-31.54000092	0	0	-4.327754021	-4.620635509	86.24687195	1.0
[RightHandRing3]
130	-29.37700081	0	0	-1.156965494	-3.063932657	41.36634827	1.0
131	-29.37700081	0	0	-1.156965375	-3.063937902	41.36634827	1.0
132	-29.37700081	0	0	-1.156975389	-3.063931465	41.36634064	1.0
133	-29.37700081	0	0	-1.156970143	-3.063933611	41.36634827	1.0
[RightHandRing4]
130	-26.47500038	0	0	0	0	0	1.0
131	-26.47500038	0	0	0	0	0	1.0
132	-26.47500038	0	0	0	0	0	1.0
133	-26.47500038	0	0	0	0	0	1.0
[RightHandMiddle1]
130	-95.32500458	0	0	-5.490185738	-4.098511219	73.57289124	1.0
131	-95.32500458	0	0	-5.490185738	-4.098494053	73.57289124	1.0
132	-95.32500458	0	0	-5.490187645	-4.098491669	73.57290649	1.0
133	-95.32500458	0	0	-5.490198135	-4.098497391	73.57289886	1.0
[RightHandMiddle2]
130	-36.98199844	0	0	-6.026564121	-4.415496826	107.5651169	1.0
131	-36.98199844	0	0	-6.026573658	-4.415509224	107.5651321	1.0
132	-36.98199844	0	0	-6.026586056	-4.415493011	107.5651093	1.0
133	-36.98199844	0	0	-6.026586056	-4.415495872	107.5651245	1.0
[RightHandMiddle3]
130	-29.50900078	0	0	-1.287461162	-3.207844019	43.75226212	1.0
131	-29.50900078	0	0	-1.2874614	-3.207847357	43.75226974	1.0
132	-29.50900078	0	0	-1.287465453	-3.207862854	43.75226212	1.0
133	-29.50900078	0	0	-1.287457466	-3.207858086	43.75226593	1.0
[RightHandMiddle4]
130	-28.3390007	0	0.0009999999311	0	0	0	1.0
131	-28.3390007	0	0.0009999999311	0	0	0	1.0
132	-28.3390007	0	0.0009999999311	0	0	0	1.0
133	-28.3390007	0	0.0009999999311	0	0	0	1.0
[RightHandIndex1]
130	-91.08300018	-5.167999744	22.60099792	2.64306736	-5.360719681	51.18567657	1.0
131	-91.08300018	-5.167999744	22.60099792	2.643072367	-5.360730171	51.18567657	1.0
132	-91.08300018	-5.167999744	22.60099792	2.643065453	-5.360720158	51.18568802	1.0
133	-91.08300018	-5.167999744	22.60099792	2.643069029	-5.360723019	51.18568802	1.0
[RightHandIndex2]
130	-36.76399994	0	0	-4.042254448	-4.59308672	82.6934433	1.0
131	-36.76399994	0	0	-4.042239189	-4.593080521	82.69343567	1.0
132	-36.76399994	0	0	-4.042244434	-4.593084812	82.69341278	1.0
133	-36.76399994	0	0	-4.042260647	-4.593069077	82.69342804	1.0
[RightHandIndex3]
130	-28.83100128	0	0	-5.126279354	-4.603961468	96.15284729	1.0
131	-28.83100128	0	0	-5.12629652	-4.603970051	96.15283203	1.0
132	-28.83100128	0	0	-5.126288414	-4.603953362	96.1528244	1.0
133	-28.83100128	0	0	-5.126297951	-4.603970528	96.15283966	1.0
[RightHandIndex4]
130	-23.92700005	0	0	0	0	0	1.0
131	-23.92700005	0	0	0	0	0	1.0
132	-23.92700005	0	0	0	0	0	1.0
133	-23.92700005	0	0	0	0	0	1.0
[RightHandThumb1]
130	-24.64799881	-15.72700024	26.82600021	-2.388242006	10.16858578	-8.287031174	1.0
131	-24.64799881	-15.72700024	26.82600021	-2.388249636	10.16859436	-8.287032127	1.0
132	-24.64799881	-15.72700024	26.82600021	-2.388238668	10.16858959	-8.287032127	1.0
133	-24.64799881	-15.72700024	26.82600021	-2.388241768	10.16859531	-8.287032127	1.0
[RightHandThumb2]
130	-32.29800034	-18.64699936	18.64699936	7.070507526	-37.46695709	0.6013814211	1.0
131	-32.29800034	-18.64699936	18.64699936	7.070492268	-37.46693802	0.601398468	1.0
132	-32.29800034	-18.64699936	18.64699936	7.07049036	-37.46695328	0.6013888121	1.0
133	-32.29800034	-18.64699936	18.64699936	7.070504189	-37.4669342	0.6013810039	1.0
[RightHandThumb3]
130	-26.52600098	-15.31399918	15.31399918	3.291628361	-34.41184998	-26.10048103	1.0
131	-26.52600098	-15.31399918	15.31399918	3.291631699	-34.41184616	-26.10049438	1.0
132	-26.52600098	-15.31399918	15.31399918	3.291618109	-34.41184235	-26.10049057	1.0
133	-26.52600098	-15.31399918	15.31399918	3.291627169	-34.41184616	-26.10048103	1.0
[RightHandThumb4]
130	-19.54599953	-11.28499985	11.28499985	0	0	0	1.0
131	-19.54599953	-11.28499985	11.28499985	0	0	0	1.0
132	-19.54599953	-11.28499985	11.28499985	0	0	0	1.0
133	-19.54599953	-11.28499985	11.28499985	0	0	0	1.0
[LeftUpLeg]
130	82.07800293	-67.51699829	-15.99599934	-6.55896759	15.22143745	13.13105869	1.0
131	82.07800293	-67.51699829	-15.99599934	-12.86100006	19.72604561	9.609374046	1.0
132	82.07800293	-67.51699829	-15.99599934	-24.13903999	21.30690956	7.566648483	1.0
133	82.07800293	-67.51699829	-15.99599934	-49.45999908	21.95363617	6.63525486	1.0
[LeftLeg]
130	0	-443.7049866	2.845999956	16.74111938	9.497501373	3.753899097	1.0
131	0	-443.7049866	2.845999956	26.21346283	4.058094501	2.366357327	1.0
132	0	-443.7049866	2.845999956	36.19385529	-3.028170109	-2.641603708	1.0
133	0	-443.7049866	2.845999956	63.11347198	-2.774559259	-6.692395687	1.0
[LeftFoot]
130	0	-444.2789917	-29.8219986	4.410849094	10.87265396	-12.07257748	1.0
131	0	-444.2789917	-29.8219986	4.745904922	5.502142906	-18.31251335	1.0
132	0	-444.2789917	-29.8219986	14.1122427	1.340005398	-14.88541317	1.0
133	0	-444.2789917	-29.8219986	17.31389427	2.493005037	-22.95985222	1.0
[LeftToeBase]
130	0	-87.28699493	107.1060028	-12.14392567	7.74576074e-06	9.318942489e-07	1.0
131	0	-87.28699493	107.1060028	-12.16623592	-2.736776878e-06	-7.787086361e-06	1.0
132	0	-87.28699493	107.1060028	-19.19311523	-1.569905066e-06	7.192796261e-07	1.0
133	0	-87.28699493	107.1060028	-11.05823421	1.582085247e-06	2.975696361e-06	1.0
[RightUpLeg]
130	-82.07800293	-67.51699829	-15.99599934	-23.13309669	-4.159855843	-9.116233826	1.0
131	-82.07800293	-67.51699829	-15.99599934	-19.01865578	-2.938103199	-9.395001411	1.0
132	-82.07800293	-67.51699829	-15.99599934	-18.45406532	-6.473073483	-8.248185158	1.0
133	-82.07800293	-67.51699829	-15.99599934	-24.03430557	-14.89545155	-7.226781368	1.0
[RightLeg]
130	0	-443.7049866	2.861999989	52.5334549	-3.242614985	-4.380844116	1.0
131	0	-443.7049866	2.861999989	50.17476273	-5.788561821	-7.969729424	1.0
132	0	-443.7049866	2.861999989	50.37477875	-4.784277916	-7.82322216	1.0
133	0	-443.7049866	2.861999989	53.73821259	-1.629286408	-4.830277443	1.0
[RightFoot]
130	0	-444.2770081	-29.83799934	-3.818495274	-0.1011812091	22.27236557	1.0
131	0	-444.2770081	-29.83799934	-18.75295448	-5.987452507	9.816045761	1.0
132	0	-444.2770081	-29.83799934	-29.51690292	-15.25100231	8.274744987	1.0
133	0	-444.2770081	-29.83799934	-31.77825737	-16.53182793	10.96191406	1.0
[RightToeBase]
130	0	-87.28699493	107.1060028	-16.88400269	-1.36458087	-5.707300663	1.0
131	0	-87.28699493	107.1060028	-11.53815651	5.481369953e-06	-4.043172794e-06	1.0
132	0	-87.28699493	107.1060028	-3.294452429	-1.224725338e-06	1.825651793e-06	1.0
133	0	-87.28699493	107.1060028	0.06952164322	-0.000284220092	0.1207726672	1.0
[EndOfFile]
